<?xml version="1.0" encoding="UTF-8"?>
<svg version="1.1" xmlns="http://www.w3.org/2000/svg" width="512" height="512">
<path d="M0 0 C1.02125977 0.19867676 2.04251953 0.39735352 3.09472656 0.60205078 C50.05255286 10.00065619 93.36747513 31.63793306 128.28125 64.4921875 C130.20443486 66.26615974 132.11953578 67.94200639 134.140625 69.59375 C136.4350781 71.52460124 138.33739466 73.33993993 140.25 75.625 C142.97902303 78.83772295 145.8029436 81.9262167 148.6875 85 C178.42746057 117.75444976 197.60445129 159.22990962 206.75 202.25 C207.04825684 203.64980103 207.04825684 203.64980103 207.35253906 205.07788086 C210.03172055 218.31409437 211.37366988 231.41833257 211.37060547 244.90942383 C211.37500726 247.06605529 211.41161636 249.22067592 211.44921875 251.37695312 C211.55283867 264.05279271 209.29094398 275.91247269 203.3125 287.25 C202.9707373 287.91201416 202.62897461 288.57402832 202.27685547 289.25610352 C192.55529788 307.41960271 176.16575397 320.26357401 156.62109375 326.30859375 C134.50186186 332.14332407 112.37604783 326.94317751 92.22265625 317.453125 C85.52995689 314.43532602 78.46326768 313.80979529 71.3046875 315.71875 C62.08975804 319.21309634 55.29096621 324.02156562 51.02734375 333.0625 C46.07633599 345.95814813 50.6130097 356.48051591 55.17529297 368.72412109 C62.60450368 389.22592756 62.99580907 414.36019065 56 435 C55.67854004 435.9605127 55.67854004 435.9605127 55.35058594 436.94042969 C46.09233812 463.96049793 25.99818703 485.52456201 0.73046875 498.35839844 C-15.59298455 506.23999161 -31.88618043 509.23456616 -49.9375 509.25 C-51.00070465 509.25101212 -51.00070465 509.25101212 -52.08538818 509.25204468 C-72.90611604 509.22074191 -92.8612585 506.26578875 -113 501 C-114.2677124 500.66959717 -114.2677124 500.66959717 -115.56103516 500.33251953 C-153.87090759 490.11506953 -189.40328249 469.63276199 -218.25 442.5625 C-220.72679294 440.25457931 -223.25228742 438.02673791 -225.8125 435.8125 C-229.93208703 432.15719559 -233.46634641 428.21458075 -237 424 C-237.81082031 423.07703125 -238.62164062 422.1540625 -239.45703125 421.203125 C-268.45770648 388.02103073 -287.57516213 347.77950634 -296.75 304.8125 C-296.94883789 303.88767822 -297.14767578 302.96285645 -297.35253906 302.01000977 C-300.62386104 285.9045005 -301.40828941 270.01851882 -301.375 253.625 C-301.37445618 252.61387146 -301.37391235 251.60274292 -301.37335205 250.56097412 C-301.33342778 234.37695336 -300.44369071 218.86472687 -297 203 C-296.79101074 202.00033203 -296.58202148 201.00066406 -296.36669922 199.97070312 C-286.80419901 155.24542127 -265.63286247 113.12936004 -234 80 C-232.7410227 78.57035584 -231.48996369 77.13366607 -230.25 75.6875 C-216.59839345 59.99301646 -199.56762502 47.00845648 -182 36 C-181.34837891 35.59040039 -180.69675781 35.18080078 -180.02539062 34.75878906 C-147.8660601 14.74124659 -111.67756151 2.17461837 -74 -2 C-73.23349121 -2.0928125 -72.46698242 -2.185625 -71.67724609 -2.28125 C-48.37113876 -4.79742893 -22.98475464 -4.55358347 0 0 Z M-83 333 C-83.85464844 333.32742188 -84.70929688 333.65484375 -85.58984375 333.9921875 C-100.65487654 340.51322855 -110.92384118 354.63447711 -116.9765625 369.37890625 C-121.82190609 383.84701164 -120.14230844 401.09017844 -113.71484375 414.7265625 C-105.47541845 429.55293784 -92.21157896 440.31627099 -76.25 445.75 C-61.0291717 449.92499209 -46.06792049 447.84338497 -32 441 C-17.10889331 431.89771358 -6.27182859 419.15721644 -1.68359375 402.109375 C1.70683437 386.68777054 -0.50201915 370.58878678 -8.82421875 357.02734375 C-18.59833094 343.06706956 -30.60331251 333.76334463 -47.2265625 329.41796875 C-59.32075786 327.59532241 -71.69327725 328.25086193 -83 333 Z " fill="#FEBB33" transform="translate(301,3)"/>
<path d="M0 0 C0 21.12 0 42.24 0 64 C-3.63 65.98 -7.26 67.96 -11 70 C-20.56979226 77.35070999 -26.5216341 86.06507594 -29 98 C-30.44575332 111.37659616 -27.59959309 122.96659586 -19.65234375 134.0078125 C-14.01914802 140.79960877 -8.09102411 143.95448794 0 148 C0 208.72 0 269.44 0 332 C-4.95 332.66 -9.9 333.32 -15 334 C-31.90918054 339.32326054 -44.56608099 349.38783231 -53 365 C-59.41297027 379.7633938 -60.41010885 396.61809073 -55.25390625 411.9609375 C-48.75355797 427.7156757 -36.56390363 439.36698171 -21 446 C-14.11548999 448.52323274 -7.25711936 449.68052375 0 451 C0 471.13 0 491.26 0 512 C-21.02608226 510.83188432 -21.02608226 510.83188432 -29.1875 509.3125 C-30.14470947 509.13807373 -31.10191895 508.96364746 -32.08813477 508.78393555 C-72.9494077 501.06009731 -111.70737231 484.44010777 -144 458 C-144.52754883 457.56864746 -145.05509766 457.13729492 -145.59863281 456.69287109 C-156.72739262 447.5501977 -167.79718378 438.11587429 -177 427 C-177.80566406 426.0821875 -178.61132812 425.164375 -179.44140625 424.21875 C-208.45549062 391.04252928 -227.57462783 350.78200851 -236.75 307.8125 C-236.94883789 306.88767822 -237.14767578 305.96285645 -237.35253906 305.01000977 C-240.62386104 288.9045005 -241.40828941 273.01851882 -241.375 256.625 C-241.37445618 255.61387146 -241.37391235 254.60274292 -241.37335205 253.56097412 C-241.33342778 237.37695336 -240.44369071 221.86472687 -237 206 C-236.79101074 205.00033203 -236.58202148 204.00066406 -236.36669922 202.97070312 C-226.80419901 158.24542127 -205.63286247 116.12936004 -174 83 C-172.7410227 81.57035584 -171.48996369 80.13366607 -170.25 78.6875 C-156.59839345 62.99301646 -139.56762502 50.00845648 -122 39 C-121.34837891 38.59040039 -120.69675781 38.18080078 -120.02539062 37.75878906 C-84.98503179 15.94795346 -41.72295687 0 0 0 Z " fill="#FEDC33" transform="translate(241,0)"/>
<path d="M0 0 C1.00289063 0.40089844 2.00578125 0.80179688 3.0390625 1.21484375 C17.11865014 7.49062894 28.41278057 19.44865159 34.15625 33.7578125 C34.4346875 34.49773437 34.713125 35.23765625 35 36 C35.2990625 36.69867188 35.598125 37.39734375 35.90625 38.1171875 C41.07858268 51.95796662 38.6419918 68.14047202 32.74243164 81.2331543 C29.27333375 88.54921129 24.80133371 94.35602616 19 100 C18.48308594 100.54914063 17.96617187 101.09828125 17.43359375 101.6640625 C6.95302144 111.89835504 -7.81392263 115.88248504 -22 116.25 C-39.12978697 115.80622314 -53.34245923 110.01380594 -65.4453125 97.7890625 C-78.07971809 83.99553713 -82.70154797 69.09458364 -82.3125 50.734375 C-81.52977871 34.38854549 -72.62895616 20.79165562 -60.84375 10.03125 C-55.10475453 5.2903407 -48.79994113 1.97610155 -42 -1 C-40.85144531 -1.51433594 -40.85144531 -1.51433594 -39.6796875 -2.0390625 C-27.26275635 -6.66837133 -11.94860101 -5.00210462 0 0 Z " fill="#3D6DCB" transform="translate(143,245)"/>
<path d="M0 0 C9.22942442 6.98123129 17.77521116 17.02816223 19.75 28.8125 C20.76685029 44.5486749 18.20564774 56.51784367 8.0078125 68.93359375 C0.27584119 77.41951247 -10.33577506 82.23692 -21.6875 83.0625 C-30.06122006 83.33262 -36.71571518 82.5046457 -44.25 78.8125 C-45.10207031 78.4 -45.95414063 77.9875 -46.83203125 77.5625 C-57.52760611 71.77933202 -64.09425027 63.09477638 -68.25 51.8125 C-68.61480469 50.87148437 -68.97960937 49.93046875 -69.35546875 48.9609375 C-72.22934863 38.84588428 -70.87873848 27.16073654 -66.25 17.8125 C-58.76745177 5.46061452 -48.90823292 -2.13853288 -35.29296875 -6.8671875 C-22.65276348 -8.84901701 -10.79211751 -7.05259959 0 0 Z " fill="#AA80FE" transform="translate(281.25,68.1875)"/>
<path d="M0 0 C10.80130644 7.08012465 19.28513773 17.46212586 21.96875 30.3125 C23.46450551 41.90460524 21.90413121 54.61707103 15.25 64.4921875 C6.83255295 75.33155594 -2.18173862 81.76320386 -15.75 84.4921875 C-28.49053897 85.89036535 -40.19814334 83.28927111 -50.46484375 75.4765625 C-56.70903493 70.05425632 -61.72585188 64.23517543 -64.75 56.4921875 C-65.04777344 55.76773438 -65.34554688 55.04328125 -65.65234375 54.296875 C-69.37309293 43.90621138 -69.00832352 32.52763687 -65.0703125 22.26953125 C-59.36850811 10.27549895 -50.11865156 1.3715638 -37.75 -3.5078125 C-25.10938217 -7.68215606 -11.66925628 -6.39820018 0 0 Z " fill="#F25A3B" transform="translate(398.75,126.5078125)"/>
<path d="M0 0 C10.36862349 6.65250883 17.37427666 16.13427503 20.21484375 28.2109375 C22.21245122 40.79091181 20.56139291 52.7436922 13.5 63.5 C5.78439226 73.612371 -3.95776143 80.83506602 -16.68359375 82.90625 C-30.88282569 84.42533573 -41.83803447 81.82015864 -53.3125 73.1875 C-63.07548358 65.02711939 -68.41119277 54.32074659 -69.6640625 41.625 C-69.995945 27.86696198 -66.41873496 16.86604919 -56.984375 6.671875 C-40.62620435 -8.86324304 -19.59572524 -11.00783963 0 0 Z " fill="#B8E55B" transform="translate(160.3125,127.8125)"/>
<path d="M0 0 C0 27.72 0 55.44 0 84 C-10.62977945 80.45674018 -19.07860048 74.16600927 -24.5390625 64.1875 C-25.79575848 61.48303145 -26.94897806 58.79050398 -28 56 C-28.36609375 55.05769531 -28.7321875 54.11539063 -29.109375 53.14453125 C-31.97500909 43.02683195 -30.62935516 31.349482 -26 22 C-21.09182871 13.897791 -10.85193414 0 0 0 Z " fill="#C68CFD" transform="translate(241,64)"/>
</svg>
